<?xml version="1.0" encoding="utf-8"?>
<svg version="1.1" id="Capa_1" xmlns="http://www.w3.org/2000/svg" xmlns:xlink="http://www.w3.org/1999/xlink" x="0px" y="0px"
	 viewBox="0 0 640 384" style="enable-background:new 0 0 640 384;" xml:space="preserve">
<style type="text/css">
	.st0{fill:#666666;}
	.st1{fill:#5C5C5C;}
	.st2{fill:#676767;}
	.st3{fill:#757575;}
	.st4{fill:#494949;}
	.st5{fill:#4C4C4C;}
	.st6{fill:#525252;}
	.st7{fill:#515151;}
	.st8{fill:#4D4D4D;}
	.st9{fill:#585858;}
	.st10{fill:#4F4F4F;}
	.st11{fill:#505050;}
	.st12{fill:#636363;}
	.st13{fill:#565656;}
	.st14{fill:#555555;}
	.st15{fill:#535353;}
	.st16{fill:#595959;}
	.st17{fill:#5A5A5A;}
	.st18{fill:#444444;}
	.st19{fill:#5F5F5F;}
	.st20{fill:#4B4B4B;}
	.st21{fill:#717171;}
	.st22{fill:#626262;}
	.st23{fill:#545454;}
	.st24{fill:#575757;}
	.st25{fill:#656565;}
	.st26{fill:#646464;}
	.st27{fill:#4E4E4E;}
	.st28{fill:#5D5D5D;}
	.st29{fill:#5E5E5E;}
	.st30{opacity:0.16;fill:#FFFFFF;enable-background:new    ;}
</style>
<rect x="-10" y="-9" class="st0" width="85.5" height="81.5"/>
<rect x="-10" y="120.5" class="st1" width="85.5" height="80"/>
<rect x="-10" y="192" class="st2" width="85.5" height="72.5"/>
<rect x="-10" y="311" class="st3" width="85.5" height="80"/>
<rect x="125" y="-9" class="st4" width="79.5" height="81.5"/>
<rect x="253" y="-9" class="st5" width="78.5" height="81.5"/>
<rect x="324" y="-9" class="st6" width="72.5" height="81.5"/>
<rect x="444" y="-9" class="st7" width="81" height="81.5"/>
<rect x="571.5" y="-9" class="st8" width="77" height="81.5"/>
<rect x="125" y="120.5" class="st9" width="79.5" height="80"/>
<rect x="253" y="120.5" class="st10" width="78.5" height="80"/>
<rect x="324" y="120.5" class="st11" width="72.5" height="80"/>
<rect x="444" y="120.5" class="st7" width="81" height="80"/>
<rect x="571.5" y="120.5" class="st11" width="77" height="80"/>
<rect x="125" y="192" class="st12" width="79.5" height="72.5"/>
<rect x="253" y="192" class="st13" width="78.5" height="72.5"/>
<rect x="324" y="192" class="st14" width="72.5" height="72.5"/>
<rect x="444" y="192" class="st15" width="81" height="72.5"/>
<rect x="571.5" y="192" class="st9" width="77" height="72.5"/>
<rect x="125" y="311" class="st0" width="79.5" height="80"/>
<rect x="253" y="311" class="st14" width="78.5" height="80"/>
<rect x="324" y="311" class="st16" width="72.5" height="80"/>
<rect x="444" y="311" class="st17" width="81" height="80"/>
<rect x="571.5" y="311" class="st18" width="77" height="80"/>
<rect x="-10" y="64" class="st19" width="85.5" height="64"/>
<rect x="125" y="64" class="st7" width="79.5" height="64"/>
<rect x="253" y="64" class="st20" width="78.5" height="64"/>
<rect x="324" y="64" class="st8" width="72.5" height="64"/>
<rect x="444" y="64" class="st6" width="81" height="64"/>
<rect x="571.5" y="64" class="st7" width="77" height="64"/>
<rect x="-10" y="256" class="st21" width="85.5" height="64"/>
<rect x="125" y="256" class="st22" width="79.5" height="64"/>
<rect x="253" y="256" class="st23" width="78.5" height="64"/>
<rect x="324" y="256" class="st9" width="72.5" height="64"/>
<rect x="444" y="256" class="st24" width="81" height="64"/>
<rect x="571.5" y="256" class="st11" width="77" height="64"/>
<rect x="68" y="-9" class="st20" width="64" height="81.5"/>
<rect x="68" y="120.5" class="st6" width="64" height="80"/>
<rect x="68" y="192" class="st25" width="64" height="72.5"/>
<rect x="68" y="311" class="st26" width="64" height="80"/>
<rect x="68" y="64" class="st5" width="64" height="64"/>
<rect x="68" y="256" class="st26" width="64" height="64"/>
<rect x="196" y="-9" class="st27" width="64" height="81.5"/>
<rect x="196" y="120.5" class="st27" width="64" height="80"/>
<rect x="196" y="192" class="st9" width="64" height="72.5"/>
<rect x="196" y="311" class="st12" width="64" height="80"/>
<rect x="196" y="64" class="st15" width="64" height="64"/>
<rect x="196" y="256" class="st17" width="64" height="64"/>
<rect x="388" y="-9" class="st15" width="64" height="81.5"/>
<rect x="388" y="120.5" class="st14" width="64" height="80"/>
<rect x="388" y="192" class="st16" width="64" height="72.5"/>
<rect x="388" y="311" class="st28" width="64" height="80"/>
<rect x="388" y="64" class="st5" width="64" height="64"/>
<rect x="388" y="256" class="st29" width="64" height="64"/>
<rect x="516" y="-9" class="st8" width="64" height="81.5"/>
<rect x="516" y="120.5" class="st7" width="64" height="80"/>
<rect x="516" y="192" class="st23" width="64" height="72.5"/>
<rect x="516" y="311" class="st6" width="64" height="80"/>
<rect x="516" y="64" class="st6" width="64" height="64"/>
<rect x="516" y="256" class="st13" width="64" height="64"/>
<path class="st30" d="M130.7,47.5c49.1,0,89,39.9,89,89s-39.9,89-89,89s-89-39.9-89-89c0-30,14.8-56.5,37.5-72.6V137v1.9
	c0.4,13.2,5.4,24.4,15,33.7c10,9.8,22.1,14.7,36.5,14.7s26.7-4.9,36.7-14.8c10-9.9,14.9-21.9,14.9-36.3c0-14.5-5-26.6-15-36.4
	c-10.1-9.8-22.3-14.6-37-14.6c-1.8,0-3.7,0.1-5.5,0.2v20.1c1.8-0.3,3.8-0.5,5.9-0.5c8.8,0,15.7,2.8,20.9,8.5
	c5.2,5.6,7.9,13.1,7.9,22.5c0,9.4-2.6,16.9-7.9,22.5c-5.2,5.6-12.3,8.6-20.9,8.6c-8.6,0-15.4-2.8-20.7-8.6
	c-4.8-5.2-7.4-11.8-7.9-19.7l-0.2-60.9l0.1-25.7C111.1,49.2,120.7,47.5,130.7,47.5"/>
<path class="st30" d="M450.7,231.3c26.7,22.7,30,62.7,7.3,89.4c-22.7,26.7-62.7,30-89.4,7.3c-26.7-22.7-30-62.7-7.3-89.4
	c13.8-16.2,34.1-23.9,53.9-22.1l-33.7,39.8l-0.9,1.1c-5.9,7.4-8.3,15.8-7.5,25.3c0.9,10,5.2,18.2,13.1,24.8
	c7.8,6.7,16.8,9.6,26.8,8.9c10-0.8,18.3-5,24.8-12.9c6.7-7.8,9.6-16.8,8.7-26.7c-0.9-10-5.4-18.2-13.4-25c-1-0.8-2.1-1.7-3.1-2.4
	l-9.3,10.9c1.2,0.7,2.3,1.5,3.4,2.5c4.8,4.1,7.2,8.7,7.4,14.2c0.2,5.5-1.8,10.7-6.1,15.8c-4.4,5.1-9.2,8-14.6,8.6
	c-5.5,0.7-10.6-1.1-15.3-5c-4.6-3.9-7.1-8.7-7.3-14.2c-0.2-5.1,1.3-9.8,4.8-14.4l28-33.2l11.9-13.9
	C439.2,223.1,445.2,226.7,450.7,231.3"/>
<path class="st30" d="M355.8,85.3c9.8-5.4,22.1-1.8,27.3,7.9s1.8,22.1-7.9,27.3c-9.8,5.4-22.1,1.8-27.3-7.9
	c-3.3-6-3.3-12.8-0.4-18.5l7.9,14.5l0.2,0.4c1.5,2.5,3.8,4.3,6.6,5.1c3.1,0.8,6,0.5,8.8-1.1c2.8-1.5,4.8-3.9,5.7-6.9s0.6-6-1-8.8
	c-1.6-2.8-3.9-4.8-6.9-5.6s-6-0.4-8.9,1.1c-0.4,0.2-0.7,0.4-1.1,0.6l2.2,4c0.3-0.3,0.7-0.5,1.1-0.7c1.7-0.9,3.5-1.1,5.1-0.6
	s2.9,1.7,4,3.7c1,1.8,1.3,3.7,0.9,5.3c-0.4,1.7-1.5,3.1-3.3,4s-3.4,1.1-5.1,0.6c-1.5-0.5-2.7-1.5-3.8-3.1l-6.7-12.1l-2.7-5.1
	C352.2,87.8,353.9,86.4,355.8,85.3"/>
</svg>
